<?xml version="1.0" encoding="utf-8"?>
<!-- Generator: Adobe Illustrator 21.1.0, SVG Export Plug-In . SVG Version: 6.00 Build 0)  -->
<svg version="1.1" id="Layer_1" xmlns="http://www.w3.org/2000/svg" xmlns:xlink="http://www.w3.org/1999/xlink" x="0px" y="0px"
	 viewBox="0 0 196.3 69.6" enable-background="new 0 0 196.3 69.6" xml:space="preserve">
<title>01_RU_Logo-Prim_RGB</title>
<path fill="#FFFF76" d="M71.3,5.6c-1.9-1.1-4.1-1.7-6.3-1.9c-0.8,0-1.5-0.2-2.2-0.5c-0.5-0.2-0.9-0.4-1.3-0.7
	c-2.5-1.4-5.2-2.5-9-0.9C41.6-1.8,29.7,0.3,20.7,7.4c-4.7,0-9,2.2-11.7,6c-0.9,1.3-2.1,2.5-3.4,3.5c-7.1,5.3-6,10.2-4.7,12.6L1,29.8
	c0.9,1.8,3,5.9,6.6,6.9c0,0.5,0.1,1,0.1,1.5c0.9,8.4,4.8,16.1,11,21.8c0.2,5.5,4.8,9.8,10.3,9.7c1.8-0.1,3.5-0.6,5-1.5
	c7.8,1.9,16,1,23.2-2.5l0.2,0.1c5.3,1.6,10.9-1.4,12.5-6.7c0.4-1.4,0.5-2.9,0.3-4.4c6.4-9,8.1-20.5,4.6-30.9c1-1.6,1.7-3.4,2.2-5.3
	c0.1-0.4,0.2-0.7,0.3-1C78.3,13.9,78.1,9.1,71.3,5.6z"/>
<path fill="#000075" d="M44.3,8.6C44,8.1,43.3,8,42.9,8.4c0,0,0,0,0,0c-2.6,1.8-6,2.1-8.9,0.9c-0.5-0.2-1.1,0-1.3,0.5
	c-0.2,0.5,0,1.1,0.5,1.3l0,0c1.4,0.6,2.8,0.9,4.3,0.9c2.4,0,4.7-0.7,6.6-2C44.5,9.7,44.6,9,44.3,8.6C44.3,8.6,44.3,8.6,44.3,8.6z
	 M72.9,25.7c-0.1-0.5-0.6-0.9-1.2-0.8c-0.5,0.1-0.9,0.6-0.8,1.2c0,0,0,0.1,0,0.1c0.5,1.7,0.8,3.4,1,5.1c0.7,6.4-0.7,12.9-4.1,18.5
	c-0.3,0.4-0.2,1.1,0.2,1.4c0.4,0.3,1.1,0.2,1.4-0.2c0-0.1,0.1-0.1,0.1-0.2c3.6-5.9,5.1-12.9,4.3-19.7C73.8,29.3,73.4,27.5,72.9,25.7
	z M25.8,9.1c0.2,0,0.4-0.1,0.5-0.1c3.8-2.4,8.2-3.9,12.7-4.3c3.1-0.3,6.2-0.2,9.2,0.5c0.6,0.1,1.1-0.2,1.2-0.8
	c0.1-0.6-0.2-1.1-0.8-1.2c-8-1.7-16.4-0.2-23.4,4.1c-0.5,0.2-0.7,0.8-0.4,1.3C25,9,25.4,9.2,25.8,9.1z M12.3,37.6
	c0-0.3-0.1-0.7-0.1-1c0-0.6-0.5-1-1.1-0.9s-1,0.5-0.9,1.1c0,0.3,0,0.7,0.1,1c0.7,6.9,3.6,13.3,8.3,18.4c0.4,0.4,1,0.4,1.4,0.1
	s0.4-1,0.1-1.4C15.7,50,13,44,12.3,37.6z M52.8,62.5c-0.4,0.1-0.7,0.2-1.1,0.4h-0.1c-0.1,0-0.2,0.1-0.3,0.2
	c-0.4,0.1-0.8,0.2-1.2,0.3c-0.1-0.2-0.3-0.3-0.5-0.3c-0.3,0-0.5,0.3-0.5,0.5c0,0,0,0,0,0c-0.3,0.1-0.7,0.1-1,0.2c0,0,0-0.1,0-0.1
	c0-0.3-0.3-0.5-0.5-0.4c-0.3,0-0.5,0.3-0.5,0.5c0,0.1,0,0.1,0.1,0.2c-0.4,0.1-0.7,0.1-1.1,0.2c0-0.1,0-0.2,0-0.2
	c0-0.3-0.3-0.5-0.5-0.4c-0.3,0-0.5,0.3-0.5,0.5c0,0.1,0.1,0.2,0.1,0.3c-0.4,0-0.7,0.1-1.1,0.1c0-0.1,0-0.2,0-0.2
	c0-0.3-0.3-0.5-0.5-0.4c-0.3,0-0.5,0.3-0.5,0.5c0,0.1,0,0.1,0.1,0.2h-1.1c0,0,0-0.1,0-0.1c0-0.3-0.3-0.5-0.5-0.4
	c-0.3,0-0.5,0.3-0.5,0.5l-1-0.1c-0.1-0.2-0.4-0.4-0.6-0.2c-0.1,0-0.2,0.1-0.2,0.2c-0.6-0.1-1.2-0.1-1.8-0.2
	c-0.6-0.1-1.1,0.3-1.1,0.8c-0.1,0.6,0.3,1.1,0.8,1.2c1.6,0.2,3.2,0.4,4.8,0.4c1.1,0,2.3-0.1,3.4-0.2c2.8-0.3,5.5-0.9,8.1-1.9
	c0.5-0.2,0.8-0.7,0.7-1.3s-0.7-0.8-1.3-0.7C52.9,62.5,52.9,62.5,52.8,62.5z"/>
<path fill="#000075" d="M60.2,42.2c1.1,0,2.3-0.3,3.3-0.7c0.5-0.2,0.8-0.8,0.5-1.3c-0.2-0.5-0.8-0.8-1.3-0.5
	c-3.4,1.4-5.5-0.2-5.6-0.3l-0.1,0c-4-3.4-9.1-5.9-14.9-5.3C36,34.7,31.3,38.7,28,43.3c-2.4,1.6-5.3,2.4-8.2,2.1
	c-0.6,0-1,0.4-1.1,0.9c0,0.6,0.4,1,0.9,1.1h1.1c1.7,0,3.4-0.3,5-0.8c-2,3.4-3.5,7-4.7,10.7c-1.3,4.2,1.1,8.7,5.4,10
	c4.2,1.3,8.7-1.1,10-5.4c1.8-5.8,4.3-8.8,7.7-9.2c3.8-0.4,6,1.2,9.1,7.1c2,3.9,6.8,5.5,10.7,3.5c3.9-2,5.5-6.8,3.5-10.7
	c-0.1-0.1-0.1-0.2-0.2-0.4C65.4,48.6,63,45.2,60.2,42.2z M66.1,57.7c-0.2,0.8-0.7,1.5-1.2,2.2c-0.1-0.2-0.3-0.4-0.5-0.4
	c-0.3,0-0.5,0.2-0.5,0.5s0.2,0.5,0.5,0.5c-0.3,0.3-0.7,0.5-1.1,0.8c-2,1.1-4.4,0.9-6.2-0.4c0,0,0-0.1,0-0.1c0-0.3-0.3-0.5-0.5-0.5
	c0,0,0,0,0,0h-0.1c-0.3-0.3-0.6-0.6-0.8-1c0.2-0.1,0.3-0.4,0.2-0.7c-0.1-0.2-0.3-0.3-0.5-0.3c-0.1,0-0.2,0.1-0.3,0.1
	c-0.2-0.4-0.4-0.8-0.6-1.1c0.2-0.2,0.3-0.5,0.1-0.7c-0.1-0.2-0.4-0.2-0.6-0.1c-0.2-0.4-0.4-0.7-0.7-1c0.1-0.1,0.2-0.3,0.2-0.4
	c0-0.3-0.3-0.5-0.5-0.4c-0.1,0-0.2,0-0.2,0.1c-0.3-0.4-0.5-0.7-0.8-1c0.2-0.1,0.4-0.3,0.4-0.5c0-0.3-0.2-0.5-0.5-0.5
	c-0.3,0-0.5,0.2-0.5,0.4c-0.7-0.7-1.4-1.2-2.2-1.7c-0.1-0.2-0.3-0.4-0.5-0.3h-0.1c-1.4-0.5-2.8-0.7-4.3-0.5
	c-1.3,0.1-2.6,0.6-3.7,1.3c-2.4,1.7-4.3,4.7-5.7,9.3c-1,3.2-4.3,4.9-7.5,4c-1.4-0.4-2.6-1.3-3.3-2.6c0.1-0.1,0.2-0.3,0.2-0.4
	c0-0.3-0.3-0.5-0.5-0.5c0,0,0,0,0,0h-0.1c-0.4-0.9-0.5-2-0.4-3c0.1,0,0.1,0,0.2,0c0.2,0,0.4-0.3,0.4-0.5c0-0.2-0.2-0.4-0.5-0.4
	c0.1-0.3,0.2-0.7,0.4-1.2c0.1,0.1,0.3,0.2,0.4,0.2c0.3,0,0.5-0.3,0.5-0.5c0-0.3-0.3-0.5-0.5-0.5c0.1-0.4,0.3-0.8,0.5-1.3
	c0.1,0.1,0.3,0.2,0.4,0.2c0.3,0,0.5-0.3,0.5-0.5c0-0.3-0.3-0.5-0.5-0.5c0.2-0.4,0.3-0.8,0.5-1.2c0.2,0.2,0.5,0.2,0.7-0.1
	c0.1-0.1,0.1-0.2,0.1-0.4c0-0.2-0.2-0.4-0.3-0.4c0.2-0.4,0.3-0.8,0.5-1.1c0.1,0,0.1,0,0.2,0c0.3,0,0.5-0.3,0.5-0.5c0,0,0,0,0,0
	c0-0.1-0.1-0.3-0.2-0.4c0.2-0.4,0.4-0.8,0.7-1.2c0.2,0,0.4-0.3,0.4-0.5c0,0,0-0.1,0-0.1c0.8-1.4,1.7-2.7,2.7-4
	c0.1,0.2,0.4,0.3,0.7,0.2s0.3-0.4,0.2-0.7c-0.1-0.1-0.2-0.2-0.3-0.2c1-1.3,2.2-2.4,3.5-3.5c0,0.3,0,0.7,0.1,1c0.3,1,1,1.9,1.8,2.5
	c0.1,0.1,0.2,0.2,0.3,0.2c2.2,1.6,4.8,2.4,7.5,2.3c1.4-0.2,2.7-0.7,3.8-1.4c0.2,0,0.3-0.1,0.4-0.3c0.9-0.6,1.7-1.2,2.4-2
	c0.3,0,0.5-0.3,0.4-0.5c0.6-0.8,1.1-1.7,1.3-2.6c0-0.2,0-0.3,0-0.5l0.8,0.5c-0.2,0.1-0.3,0.4-0.2,0.7c0.1,0.2,0.4,0.3,0.7,0.2
	c0.1-0.1,0.2-0.2,0.2-0.4c0.8,0.5,1.5,1.1,2.3,1.7L56,41c0.5,0.4,0.9,0.8,1.4,1.2c-0.2,0.1-0.4,0.3-0.3,0.5c0,0.3,0.2,0.5,0.4,0.6
	s0.5-0.2,0.6-0.4c3,3.1,5.6,6.6,7.6,10.3c0.4,0.7,0.6,1.5,0.7,2.3c-0.1-0.1-0.3-0.2-0.4-0.2c-0.3,0-0.5,0.3-0.4,0.5
	c0,0.3,0.3,0.5,0.6,0.5c0.1,0,0.2-0.1,0.3-0.2C66.3,56.7,66.2,57.2,66.1,57.7z M35.9,16.3c-0.4-0.4-1.1-0.3-1.4,0.1
	s-0.3,1.1,0.1,1.4c1.4,1.4,2.2,3.2,2.3,5.1c0.1,0.5,0.5,0.9,1,0.9H38c0.5-0.1,0.9-0.5,0.9-1.1c0,0,0,0,0,0
	C38.7,20.3,37.7,18,35.9,16.3z M44.5,15.4c-1.4,2-1.9,4.5-1.6,6.9c0.1,0.5,0.5,0.9,1,0.9H44c0.5-0.1,0.9-0.5,0.9-1.1c0,0,0,0,0,0
	c-0.3-1.9,0.1-3.8,1.2-5.4c0.4-0.4,0.3-1.1-0.1-1.4C45.4,15,44.8,15,44.5,15.4z M14.1,29.3c0-0.2,0-0.5,0.1-0.7c0.2-2,0.4-5.5,3.3-8
	c1.5-1.3,3.3-2.1,5.2-2.3c0.6,0,1-0.5,1-1s-0.5-1-1-1h-0.5c0-0.3-0.2-0.5-0.5-0.5s-0.5,0.2-0.5,0.5c0,0.1,0,0.2,0.1,0.2
	c-1.8,0.4-3.6,1.3-5,2.5c-0.6,0.6-1.2,1.2-1.7,1.9c-0.1-0.2-0.3-0.3-0.5-0.3c-0.3,0-0.5,0.3-0.5,0.5c0,0,0,0,0,0
	c0,0.3,0.2,0.4,0.5,0.4c-0.2,0.4-0.4,0.8-0.5,1.1c-0.3-0.1-0.5,0-0.6,0.3c0,0.1,0,0.2,0,0.3c0,0.2,0.1,0.3,0.3,0.4
	c-0.1,0.4-0.3,0.8-0.4,1.2c-0.1,0-0.2,0-0.2,0c-0.3,0-0.5,0.3-0.4,0.5c0.1,0.2,0.2,0.3,0.5,0.3c-0.2,0.9-0.3,1.8-0.3,2.7
	c0,0.2,0,0.5-0.1,0.7c-0.2,2.1-0.7,3.4-2.4,3.7c-2.3,0.4-4.3-3.4-5-4.9l-0.2-0.3c-0.2-0.4-0.3-0.8-0.4-1.3c0.1,0.2,0.3,0.3,0.5,0.3
	c0.3,0,0.5-0.3,0.4-0.5c0-0.3-0.3-0.5-0.5-0.5c-0.2,0-0.4,0.2-0.4,0.4c0.1-1.4,0.6-2.8,1.7-3.8c0.1,0.1,0.3,0.2,0.4,0.2
	c0.3,0,0.5-0.3,0.5-0.5c0,0,0,0,0,0c0-0.1-0.1-0.3-0.2-0.3c0.5-0.5,1.1-1,1.7-1.5l0.4-0.3C8.5,20,8.7,20.1,9,20.1
	c0.3,0,0.5-0.3,0.4-0.5c0-0.1-0.1-0.3-0.2-0.4c0.7-0.6,1.4-1.3,2-2c-0.1,0.3,0.1,0.5,0.3,0.6s0.5-0.1,0.6-0.3
	c0.1-0.3-0.1-0.5-0.3-0.6c-0.1,0-0.1,0-0.2,0c-0.1,0-0.1,0-0.2,0c0.3-0.4,0.6-0.7,0.8-1l0.1-0.1c0,0,0.1,0,0.1-0.1
	c0.3,0,0.5-0.3,0.5-0.5c0,0,0,0,0,0c0,0,0-0.1,0-0.1c0.5-0.7,1.2-1.3,1.9-1.8c0.1,0.1,0.3,0.2,0.4,0.2c0.3,0,0.5-0.3,0.4-0.5
	c0,0,0-0.1,0-0.1c2.2-1.3,4.8-1.7,7.3-1.1c-0.2,0.1-0.3,0.3-0.3,0.5c0,0.3,0.3,0.5,0.5,0.4c0.3,0,0.5-0.3,0.5-0.5l0,0
	c0-0.1-0.1-0.3-0.3-0.3c0.4,0.1,0.8,0.2,1.2,0.3c0.1,0.3,0.4,0.4,0.6,0.3c0,0,0,0,0.1,0c0.8,0.3,1.7,0.7,2.5,1.1c0,0.1,0,0.1,0,0.2
	c0,0.3,0.3,0.5,0.6,0.4c0.1,0,0.3-0.1,0.3-0.2c0.3,0.2,0.7,0.4,1.1,0.6c0.4,0.3,1.1,0.3,1.4-0.2c0.3-0.4,0.3-1.1-0.2-1.4
	c-0.1-0.1-0.2-0.1-0.2-0.1c-8.8-5.3-14-3.2-17.1-1.2c-1.2,0.8-2.3,1.9-3.1,3.1c-1.1,1.5-2.3,2.8-3.8,3.8c-5.6,4.2-5.4,7.8-4.2,10
	l0.2,0.4c1,1.8,3.1,6,6.4,6c0.3,0,0.5,0,0.8-0.1C13.5,34.1,13.9,30.7,14.1,29.3z M70.4,7.4c-1.7-1-3.6-1.6-5.6-1.7
	c-0.9-0.1-1.9-0.3-2.8-0.6c-0.5-0.2-1.1-0.5-1.6-0.8C57.9,2.8,54.7,1,48.3,7c-0.4,0.4-0.4,1,0,1.4s1,0.4,1.4,0
	c0.6-0.6,1.1-1,1.7-1.4c0,0,0,0.1,0,0.1c0,0.3,0.3,0.5,0.6,0.4c0.3,0,0.5-0.3,0.4-0.5l0,0c0-0.2-0.2-0.4-0.4-0.4
	c3.7-2.7,5.6-1.8,7.5-0.7c-0.2,0.2-0.1,0.5,0.1,0.7c0.2,0.2,0.5,0.1,0.7-0.1c0,0,0.1-0.1,0.1-0.2c0.4,0.2,0.7,0.4,1.1,0.5
	c0.5,0.2,1.1,0.4,1.6,0.5c-0.3,0-0.5,0.3-0.4,0.6c0,0.3,0.3,0.5,0.6,0.4c0.3,0,0.5-0.3,0.4-0.6c0,0,0,0,0,0c0-0.2-0.1-0.3-0.3-0.4
	c0.5,0.1,0.9,0.1,1.3,0.2c0,0,0,0-0.1,0.1c0,0.3,0.3,0.5,0.5,0.5c0,0,0,0,0,0c0.2,0,0.4-0.2,0.4-0.5c1.4,0.2,2.8,0.7,4,1.4l0.1,0.1
	c0,0.3,0.2,0.5,0.5,0.4c0.1,0,0.1,0,0.2,0c2.7,1.6,3.4,3.2,3.4,4.7h0c-0.3,0-0.5,0.3-0.4,0.5c0,0.2,0.2,0.4,0.4,0.4
	c-0.1,0.3-0.1,0.5-0.2,0.8l-0.1,0.5c-0.1-0.1-0.3-0.2-0.4-0.2c-0.3,0-0.5,0.3-0.4,0.5c0,0.3,0.3,0.5,0.5,0.5h0.1
	c-0.1,0.5-0.3,1-0.4,1.5c0-0.3-0.3-0.5-0.6-0.4s-0.5,0.3-0.4,0.6c0,0.3,0.3,0.4,0.5,0.4c0.1,0,0.2-0.1,0.3-0.2
	c-0.2,0.5-0.4,1.1-0.7,1.6c-0.1-0.2-0.3-0.3-0.5-0.3c-0.3,0-0.5,0.3-0.4,0.5c0,0.2,0.2,0.4,0.5,0.4c-0.4,0.4-0.9,0.7-1.5,0.5
	c-1.4-0.3-2.1-1.1-3.4-3.4c-0.3-0.5-0.5-0.9-0.7-1.3c-0.6-1.3-1.5-2.5-2.7-3.3c0-0.1,0-0.2,0-0.2c0-0.3-0.3-0.5-0.6-0.4
	c-0.1,0-0.2,0.1-0.3,0.1c-0.4-0.3-0.9-0.6-1.5-0.9c-0.3-0.2-0.6-0.3-0.8-0.4c0-0.3-0.3-0.5-0.5-0.5c0,0,0,0,0,0
	c-0.1,0-0.2,0.1-0.3,0.1c-1.5-0.5-3.1-0.8-4.6-0.7c0.2-0.1,0.3-0.3,0.3-0.5c0-0.3-0.3-0.5-0.5-0.5c-0.3,0-0.5,0.3-0.5,0.5
	c0,0.2,0.2,0.4,0.4,0.4h-0.2c-0.6,0.1-0.9,0.6-0.8,1.2c0.1,0.6,0.6,0.9,1.2,0.8c1.9-0.2,3.8,0.2,5.5,1.1c0.7,0.4,1.3,0.7,1.7,1
	c-1.3,0.1-2.6,0.6-3.5,1.4c-0.4,0.3-0.5,1-0.2,1.4c0.3,0.4,1,0.5,1.4,0.2c0,0,0,0,0.1-0.1c1.3-1,3-1.2,4.4-0.6l0.3,0.5
	c0.2,0.4,0.4,0.9,0.7,1.4C66,22,67,23.5,69.4,24c0.3,0.1,0.6,0.1,0.9,0.1c3.1,0,4.1-4,4.8-6.4c0.1-0.4,0.2-0.8,0.3-1.1
	C76.5,12.8,74.9,9.7,70.4,7.4z M34.7,32.2c0.2,0,0.4-0.1,0.6-0.2c0.2-0.2,6.1-4.3,12.9-1.3c0.5,0.2,1.1,0,1.3-0.5
	c0.2-0.5,0-1.1-0.5-1.3c-7.9-3.4-14.6,1.4-14.9,1.6c-0.4,0.3-0.5,0.9-0.2,1.4C34.1,32.1,34.4,32.3,34.7,32.2z M59.5,27.2
	c-2.7,0.3-4.7,2.8-4.4,5.5c0.3,2.7,2.8,4.7,5.5,4.4c2.7-0.3,4.7-2.7,4.4-5.5C64.7,28.9,62.2,26.9,59.5,27.2
	C59.5,27.2,59.5,27.2,59.5,27.2z M61,32.1c-0.7,0.1-1.3-0.4-1.4-1.1c-0.1-0.7,0.4-1.3,1.1-1.4c0.7-0.1,1.3,0.4,1.4,1.1c0,0,0,0,0,0
	C62.2,31.4,61.7,32,61,32.1C61,32.1,61,32.1,61,32.1L61,32.1z M24.7,40.9c2.7-0.3,4.7-2.8,4.4-5.5c-0.3-2.7-2.8-4.7-5.5-4.4
	c-2.7,0.3-4.7,2.7-4.4,5.5C19.5,39.2,21.9,41.2,24.7,40.9C24.7,40.9,24.7,40.9,24.7,40.9z M24.9,33.4c0.7-0.1,1.3,0.4,1.4,1.1
	c0.1,0.7-0.4,1.3-1.1,1.4c-0.7,0.1-1.3-0.4-1.4-1.1c0,0,0,0,0,0C23.8,34.1,24.2,33.5,24.9,33.4z M52.4,25c0.3,0.4,1,0.5,1.4,0.2
	c2.5-1.9,5.9-2.5,8.9-1.5c0.5,0.2,1.1-0.1,1.3-0.6c0.2-0.5-0.1-1-0.5-1.2c-2.3-0.8-4.7-0.9-7-0.3c-1.4,0.4-2.7,1-3.9,2
	C52.1,23.9,52,24.5,52.4,25C52.3,25,52.3,25,52.4,25z"/>
<path fill="#000075" d="M17.5,29.7c0.4,0.4,1,0.5,1.4,0.1c0,0,0,0,0,0c2.5-2,5.8-2.7,8.9-1.7c0.5,0.2,1.1-0.1,1.3-0.6
	c0.2-0.5-0.1-1.1-0.6-1.3c-0.6-0.2-1.2-0.3-1.8-0.4c-3.2-0.5-6.5,0.4-9,2.5C17.2,28.6,17.1,29.2,17.5,29.7
	C17.4,29.7,17.4,29.7,17.5,29.7z M20.5,22.6c0.2,0.4,0.5,0.6,0.9,0.6c0.1,0,0.3,0,0.4-0.1c1.5-0.6,3.1-0.8,4.7-0.7
	c0.6,0.1,1.1-0.3,1.1-0.9c0.1-0.6-0.3-1.1-0.9-1.1c-1.9-0.2-3.9,0.1-5.7,0.8C20.5,21.5,20.2,22.1,20.5,22.6
	C20.4,22.6,20.4,22.6,20.5,22.6z"/>
<ellipse transform="matrix(0.9945 -0.1045 0.1045 0.9945 -6.3549 2.995)" fill="#000075" cx="25.4" cy="62.1" rx="0.5" ry="0.5"/>
<ellipse transform="matrix(0.9945 -0.1045 0.1045 0.9945 -6.1645 2.8591)" fill="#000075" cx="24.2" cy="60.2" rx="0.5" ry="0.5"/>
<ellipse transform="matrix(0.9945 -0.1045 0.1045 0.9945 -6.132 3.0657)" fill="#000075" cx="26.2" cy="60" rx="0.5" ry="0.5"/>
<ellipse transform="matrix(0.9945 -0.1045 0.1045 0.9945 -5.9427 2.929)" fill="#000075" cx="25" cy="58.2" rx="0.5" ry="0.5"/>
<ellipse transform="matrix(0.9945 -0.1045 0.1045 0.9945 -5.9091 3.1365)" fill="#000075" cx="27" cy="57.9" rx="0.5" ry="0.5"/>
<ellipse transform="matrix(0.9945 -0.1045 0.1045 0.9945 -5.8756 3.3431)" fill="#000075" cx="29" cy="57.7" rx="0.5" ry="0.5"/>
<ellipse transform="matrix(0.9945 -0.1045 0.1045 0.9945 -5.8431 3.5496)" fill="#000075" cx="30.9" cy="57.5" rx="0.5" ry="0.5"/>
<ellipse transform="matrix(0.9945 -0.1045 0.1045 0.9945 -5.8106 3.7562)" fill="#000075" cx="32.9" cy="57.3" rx="0.5" ry="0.5"/>
<ellipse transform="matrix(0.9945 -0.1045 0.1045 0.9945 -5.777 3.9638)" fill="#000075" cx="34.9" cy="57.1" rx="0.5" ry="0.5"/>
<ellipse transform="matrix(0.9945 -0.1045 0.1045 0.9945 -5.5877 3.8281)" fill="#000075" cx="33.7" cy="55.2" rx="0.5" ry="0.5"/>
<ellipse transform="matrix(0.9945 -0.1045 0.1045 0.9945 -5.6202 3.6205)" fill="#000075" cx="31.7" cy="55.4" rx="0.5" ry="0.5"/>
<ellipse transform="matrix(0.9945 -0.1045 0.1045 0.9945 -5.6528 3.4139)" fill="#000075" cx="29.7" cy="55.6" rx="0.5" ry="0.5"/>
<ellipse transform="matrix(0.9945 -0.1045 0.1045 0.9945 -5.6863 3.2074)" fill="#000075" cx="27.8" cy="55.9" rx="0.5" ry="0.5"/>
<ellipse transform="matrix(0.9945 -0.1045 0.1045 0.9945 -5.7189 2.9996)" fill="#000075" cx="25.8" cy="56.1" rx="0.5" ry="0.5"/>
<ellipse transform="matrix(0.9945 -0.1045 0.1045 0.9945 -5.4949 3.0714)" fill="#000075" cx="26.6" cy="54" rx="0.5" ry="0.5"/>
<ellipse transform="matrix(0.9945 -0.1045 0.1045 0.9945 -5.4624 3.278)" fill="#000075" cx="28.5" cy="53.8" rx="0.5" ry="0.5"/>
<ellipse transform="matrix(0.9945 -0.1045 0.1045 0.9945 -5.4288 3.4846)" fill="#000075" cx="30.5" cy="53.5" rx="0.5" ry="0.5"/>
<ellipse transform="matrix(0.9945 -0.1045 0.1045 0.9945 -5.3964 3.6912)" fill="#000075" cx="32.5" cy="53.3" rx="0.5" ry="0.5"/>
<ellipse transform="matrix(0.9945 -0.105 0.105 0.9945 -5.3896 3.919)" fill="#000075" cx="34.5" cy="53.1" rx="0.5" ry="0.5"/>
<ellipse transform="matrix(0.9945 -0.1045 0.1045 0.9945 -5.3325 4.1034)" fill="#000075" cx="36.5" cy="52.9" rx="0.5" ry="0.5"/>
<ellipse transform="matrix(0.9945 -0.1045 0.1045 0.9945 -5.5552 4.0347)" fill="#000075" cx="35.7" cy="55" rx="0.5" ry="0.5"/>
<ellipse transform="matrix(0.9945 -0.1045 0.1045 0.9945 -5.141 3.9686)" fill="#000075" cx="35.3" cy="51" rx="0.5" ry="0.5"/>
<ellipse transform="matrix(0.9945 -0.1045 0.1045 0.9945 -5.1735 3.762)" fill="#000075" cx="33.3" cy="51.2" rx="0.5" ry="0.5"/>
<ellipse transform="matrix(0.9945 -0.1045 0.1045 0.9945 -5.2071 3.5555)" fill="#000075" cx="31.3" cy="51.5" rx="0.5" ry="0.5"/>
<ellipse transform="matrix(0.9945 -0.1045 0.1045 0.9945 -5.2396 3.3478)" fill="#000075" cx="29.3" cy="51.7" rx="0.5" ry="0.5"/>
<ellipse transform="matrix(0.9945 -0.1045 0.1045 0.9945 -5.2722 3.1412)" fill="#000075" cx="27.3" cy="51.9" rx="0.5" ry="0.5"/>
<ellipse transform="matrix(0.9945 -0.1045 0.1045 0.9945 -5.0493 3.212)" fill="#000075" cx="28.1" cy="49.8" rx="0.5" ry="0.5"/>
<ellipse transform="matrix(0.9945 -0.1045 0.1045 0.9945 -5.0157 3.4195)" fill="#000075" cx="30.1" cy="49.6" rx="0.5" ry="0.5"/>
<ellipse transform="matrix(0.9945 -0.105 0.105 0.9945 -5.0072 3.6458)" fill="#000075" cx="32.1" cy="49.4" rx="0.5" ry="0.5"/>
<ellipse transform="matrix(0.9945 -0.1045 0.1045 0.9945 -4.9506 3.8328)" fill="#000075" cx="34.1" cy="49.1" rx="0.5" ry="0.5"/>
<ellipse transform="matrix(0.9945 -0.1045 0.1045 0.9945 -4.9182 4.0394)" fill="#000075" cx="36.1" cy="48.9" rx="0.5" ry="0.5"/>
<ellipse transform="matrix(0.9945 -0.1045 0.1045 0.9945 -4.8857 4.246)" fill="#000075" cx="38.1" cy="48.7" rx="0.5" ry="0.5"/>
<ellipse transform="matrix(0.9945 -0.1045 0.1045 0.9945 -4.8532 4.4526)" fill="#000075" cx="40.1" cy="48.5" rx="0.5" ry="0.5"/>
<ellipse transform="matrix(0.9945 -0.1045 0.1045 0.9945 -4.8197 4.6591)" fill="#000075" cx="42" cy="48.3" rx="0.5" ry="0.5"/>
<ellipse transform="matrix(0.9945 -0.1045 0.1045 0.9945 -4.7871 4.8657)" fill="#000075" cx="44" cy="48.1" rx="0.5" ry="0.5"/>
<ellipse transform="matrix(0.9945 -0.1045 0.1045 0.9945 -4.7536 5.0732)" fill="#000075" cx="46" cy="47.9" rx="0.5" ry="0.5"/>
<ellipse transform="matrix(0.9945 -0.1045 0.1045 0.9945 -4.7221 5.2799)" fill="#000075" cx="48" cy="47.7" rx="0.5" ry="0.5"/>
<ellipse transform="matrix(0.9945 -0.1045 0.1045 0.9945 -4.6885 5.4874)" fill="#000075" cx="50" cy="47.5" rx="0.5" ry="0.5"/>
<ellipse transform="matrix(0.9945 -0.1045 0.1045 0.9945 -4.6571 5.6931)" fill="#000075" cx="52" cy="47.3" rx="0.5" ry="0.5"/>
<ellipse transform="matrix(0.9945 -0.1045 0.1045 0.9945 -4.6234 5.9007)" fill="#000075" cx="54" cy="47.1" rx="0.5" ry="0.5"/>
<ellipse transform="matrix(0.9945 -0.1045 0.1045 0.9945 -4.5911 6.1063)" fill="#000075" cx="56" cy="46.9" rx="0.5" ry="0.5"/>
<ellipse transform="matrix(0.9945 -0.1045 0.1045 0.9945 -4.5575 6.3138)" fill="#000075" cx="58" cy="46.6" rx="0.5" ry="0.5"/>
<ellipse transform="matrix(0.9945 -0.1045 0.1045 0.9945 -4.5261 6.5194)" fill="#000075" cx="59.9" cy="46.4" rx="0.5" ry="0.5"/>
<ellipse transform="matrix(0.9945 -0.1045 0.1045 0.9945 -5.1074 4.1761)" fill="#000075" cx="37.3" cy="50.8" rx="0.5" ry="0.5"/>
<ellipse transform="matrix(0.9945 -0.1045 0.1045 0.9945 -5.0749 4.3827)" fill="#000075" cx="39.3" cy="50.6" rx="0.5" ry="0.5"/>
<ellipse transform="matrix(0.9945 -0.1045 0.1045 0.9945 -5.0424 4.5893)" fill="#000075" cx="41.3" cy="50.4" rx="0.5" ry="0.5"/>
<ellipse transform="matrix(0.9945 -0.1045 0.1045 0.9945 -5.0088 4.7958)" fill="#000075" cx="43.3" cy="50.2" rx="0.5" ry="0.5"/>
<ellipse transform="matrix(0.9945 -0.1045 0.1045 0.9945 -4.9775 5.0026)" fill="#000075" cx="45.2" cy="50" rx="0.5" ry="0.5"/>
<ellipse transform="matrix(0.9945 -0.1047 0.1047 0.9945 -4.9525 5.2183)" fill="#000075" cx="47.2" cy="49.8" rx="0.5" ry="0.5"/>
<ellipse transform="matrix(0.9945 -0.1045 0.1045 0.9945 -4.9114 5.4157)" fill="#000075" cx="49.2" cy="49.6" rx="0.5" ry="0.5"/>
<ellipse transform="matrix(0.9945 -0.1045 0.1045 0.9945 -4.8799 5.6223)" fill="#000075" cx="51.2" cy="49.4" rx="0.5" ry="0.5"/>
<ellipse transform="matrix(0.9945 -0.1045 0.1045 0.9945 -4.8474 5.8289)" fill="#000075" cx="53.2" cy="49.2" rx="0.5" ry="0.5"/>
<ellipse transform="matrix(0.9945 -0.1045 0.1045 0.9945 -5.2999 4.3111)" fill="#000075" cx="38.5" cy="52.7" rx="0.5" ry="0.5"/>
<ellipse transform="matrix(0.9945 -0.1045 0.1045 0.9945 -5.4242 4.8599)" fill="#000075" cx="43.7" cy="54.2" rx="0.5" ry="0.5"/>
<ellipse transform="matrix(0.9945 -0.1045 0.1045 0.9945 -5.3907 5.0675)" fill="#000075" cx="45.7" cy="54" rx="0.5" ry="0.5"/>
<ellipse transform="matrix(0.9945 -0.1045 0.1045 0.9945 -5.6795 4.5836)" fill="#000075" cx="40.9" cy="56.5" rx="0.5" ry="0.5"/>
<ellipse transform="matrix(0.9945 -0.1045 0.1045 0.9945 -5.6469 4.7913)" fill="#000075" cx="42.9" cy="56.3" rx="0.5" ry="0.5"/>
<ellipse transform="matrix(0.9945 -0.1045 0.1045 0.9945 -5.6144 4.9978)" fill="#000075" cx="44.9" cy="56.1" rx="0.5" ry="0.5"/>
<ellipse transform="matrix(0.9945 -0.1045 0.1045 0.9945 -5.5819 5.2044)" fill="#000075" cx="46.9" cy="55.9" rx="0.5" ry="0.5"/>
<ellipse transform="matrix(0.9945 -0.1045 0.1045 0.9945 -5.5485 5.411)" fill="#000075" cx="48.8" cy="55.6" rx="0.5" ry="0.5"/>
<ellipse transform="matrix(0.9945 -0.1045 0.1045 0.9945 -5.9024 4.5128)" fill="#000075" cx="40.1" cy="58.6" rx="0.5" ry="0.5"/>
<ellipse transform="matrix(0.9945 -0.1045 0.1045 0.9945 -5.8699 4.7194)" fill="#000075" cx="42.1" cy="58.4" rx="0.5" ry="0.5"/>
<ellipse transform="matrix(0.9945 -0.105 0.105 0.9945 -5.8646 4.9527)" fill="#000075" cx="44.1" cy="58.1" rx="0.5" ry="0.5"/>
<ellipse transform="matrix(0.9945 -0.1045 0.1045 0.9945 -5.8037 5.1335)" fill="#000075" cx="46.1" cy="57.9" rx="0.5" ry="0.5"/>
<ellipse transform="matrix(0.9945 -0.1045 0.1045 0.9945 -5.7712 5.3401)" fill="#000075" cx="48.1" cy="57.7" rx="0.5" ry="0.5"/>
<ellipse transform="matrix(0.9945 -0.1047 0.1047 0.9945 -5.7475 5.5566)" fill="#000075" cx="50.1" cy="57.5" rx="0.5" ry="0.5"/>
<ellipse transform="matrix(0.9945 -0.1045 0.1045 0.9945 -6.1251 4.443)" fill="#000075" cx="39.3" cy="60.7" rx="0.5" ry="0.5"/>
<ellipse transform="matrix(0.9945 -0.1045 0.1045 0.9945 -6.0926 4.6496)" fill="#000075" cx="41.3" cy="60.5" rx="0.5" ry="0.5"/>
<ellipse transform="matrix(0.9945 -0.1045 0.1045 0.9945 -6.059 4.8561)" fill="#000075" cx="43.3" cy="60.2" rx="0.5" ry="0.5"/>
<ellipse transform="matrix(0.9945 -0.1045 0.1045 0.9945 -6.0277 5.0629)" fill="#000075" cx="45.3" cy="60" rx="0.5" ry="0.5"/>
<ellipse transform="matrix(0.9945 -0.1045 0.1045 0.9945 -5.9952 5.2695)" fill="#000075" cx="47.3" cy="59.8" rx="0.5" ry="0.5"/>
<ellipse transform="matrix(0.9945 -0.1045 0.1045 0.9945 -5.9627 5.476)" fill="#000075" cx="49.3" cy="59.6" rx="0.5" ry="0.5"/>
<ellipse transform="matrix(0.9945 -0.1045 0.1045 0.9945 -6.3491 4.3713)" fill="#000075" cx="38.5" cy="62.8" rx="0.5" ry="0.5"/>
<ellipse transform="matrix(0.9945 -0.1047 0.1047 0.9945 -6.3265 4.5874)" fill="#000075" cx="40.5" cy="62.6" rx="0.5" ry="0.5"/>
<ellipse transform="matrix(0.9945 -0.1045 0.1045 0.9945 -6.283 4.7855)" fill="#000075" cx="42.5" cy="62.3" rx="0.5" ry="0.5"/>
<ellipse transform="matrix(0.9945 -0.1045 0.1045 0.9945 -6.2505 4.992)" fill="#000075" cx="44.5" cy="62.1" rx="0.5" ry="0.5"/>
<ellipse transform="matrix(0.9945 -0.1045 0.1045 0.9945 -6.2179 5.1997)" fill="#000075" cx="46.5" cy="61.9" rx="0.5" ry="0.5"/>
<ellipse transform="matrix(0.9945 -0.1045 0.1045 0.9945 -6.1843 5.4062)" fill="#000075" cx="48.5" cy="61.7" rx="0.5" ry="0.5"/>
<ellipse transform="matrix(0.9945 -0.1045 0.1045 0.9945 -6.1518 5.6128)" fill="#000075" cx="50.5" cy="61.5" rx="0.5" ry="0.5"/>
<ellipse transform="matrix(0.9945 -0.1045 0.1045 0.9945 -6.1193 5.8194)" fill="#000075" cx="52.5" cy="61.3" rx="0.5" ry="0.5"/>
<ellipse transform="matrix(0.9945 -0.1045 0.1045 0.9945 -5.9291 5.6836)" fill="#000075" cx="51.3" cy="59.4" rx="0.5" ry="0.5"/>
<ellipse transform="matrix(0.9945 -0.1045 0.1045 0.9945 -4.8138 6.0365)" fill="#000075" cx="55.2" cy="48.9" rx="0.5" ry="0.5"/>
<ellipse transform="matrix(0.9945 -0.1045 0.1045 0.9945 -4.7803 6.243)" fill="#000075" cx="57.2" cy="48.7" rx="0.5" ry="0.5"/>
<ellipse transform="matrix(0.9945 -0.1045 0.1045 0.9945 -4.7478 6.4496)" fill="#000075" cx="59.2" cy="48.5" rx="0.5" ry="0.5"/>
<ellipse transform="matrix(0.9945 -0.1045 0.1045 0.9945 -5.1027 5.5515)" fill="#000075" cx="50.4" cy="51.5" rx="0.5" ry="0.5"/>
<ellipse transform="matrix(0.9945 -0.1045 0.1045 0.9945 -5.0703 5.7581)" fill="#000075" cx="52.4" cy="51.3" rx="0.5" ry="0.5"/>
<ellipse transform="matrix(0.9945 -0.1047 0.1047 0.9945 -5.0442 5.976)" fill="#000075" cx="54.4" cy="51" rx="0.5" ry="0.5"/>
<ellipse transform="matrix(0.9945 -0.1045 0.1045 0.9945 -5.0032 6.1722)" fill="#000075" cx="56.4" cy="50.8" rx="0.5" ry="0.5"/>
<ellipse transform="matrix(0.9945 -0.1045 0.1045 0.9945 -4.9717 6.3789)" fill="#000075" cx="58.4" cy="50.6" rx="0.5" ry="0.5"/>
<ellipse transform="matrix(0.9945 -0.1045 0.1045 0.9945 -4.9381 6.5865)" fill="#000075" cx="60.4" cy="50.4" rx="0.5" ry="0.5"/>
<ellipse transform="matrix(0.9945 -0.1045 0.1045 0.9945 -5.2595 5.8949)" fill="#000075" cx="53.6" cy="53.1" rx="0.5" ry="0.5"/>
<ellipse transform="matrix(0.9945 -0.1045 0.1045 0.9945 -5.228 6.1015)" fill="#000075" cx="55.6" cy="52.9" rx="0.5" ry="0.5"/>
<ellipse transform="matrix(0.9945 -0.1045 0.1045 0.9945 -5.1944 6.3091)" fill="#000075" cx="57.6" cy="52.7" rx="0.5" ry="0.5"/>
<ellipse transform="matrix(0.9945 -0.1045 0.1045 0.9945 -5.1609 6.5156)" fill="#000075" cx="59.6" cy="52.5" rx="0.5" ry="0.5"/>
<ellipse transform="matrix(0.9945 -0.1045 0.1045 0.9945 -5.4499 6.0307)" fill="#000075" cx="54.8" cy="55" rx="0.5" ry="0.5"/>
<ellipse transform="matrix(0.9945 -0.1045 0.1045 0.9945 -5.4174 6.2372)" fill="#000075" cx="56.8" cy="54.8" rx="0.5" ry="0.5"/>
<ellipse transform="matrix(0.9945 -0.1045 0.1045 0.9945 -5.3838 6.4448)" fill="#000075" cx="58.8" cy="54.6" rx="0.5" ry="0.5"/>
<ellipse transform="matrix(0.9945 -0.1045 0.1045 0.9945 -5.3523 6.6515)" fill="#000075" cx="60.8" cy="54.4" rx="0.5" ry="0.5"/>
<ellipse transform="matrix(0.9945 -0.1045 0.1045 0.9945 -5.6411 6.1676)" fill="#000075" cx="56" cy="56.9" rx="0.5" ry="0.5"/>
<ellipse transform="matrix(0.9945 -0.1045 0.1045 0.9945 -5.6077 6.3741)" fill="#000075" cx="58" cy="56.7" rx="0.5" ry="0.5"/>
<ellipse transform="matrix(0.9945 -0.1045 0.1045 0.9945 -5.5752 6.5807)" fill="#000075" cx="60" cy="56.5" rx="0.5" ry="0.5"/>
<ellipse transform="matrix(0.9945 -0.1045 0.1045 0.9945 -5.5438 6.7863)" fill="#000075" cx="62" cy="56.3" rx="0.5" ry="0.5"/>
<ellipse transform="matrix(0.9945 -0.1045 0.1045 0.9945 -5.1285 6.7212)" fill="#000075" cx="61.6" cy="52.3" rx="0.5" ry="0.5"/>
<ellipse transform="matrix(0.9945 -0.1045 0.1045 0.9945 -4.7152 6.6572)" fill="#000075" cx="61.2" cy="48.3" rx="0.5" ry="0.5"/>
<ellipse transform="matrix(0.9945 -0.1045 0.1045 0.9945 -4.7268 3.9035)" fill="#000075" cx="34.9" cy="47" rx="0.5" ry="0.5"/>
<ellipse transform="matrix(0.9945 -0.1045 0.1045 0.9945 -4.7604 3.6959)" fill="#000075" cx="32.9" cy="47.3" rx="0.5" ry="0.5"/>
<ellipse transform="matrix(0.9945 -0.1045 0.1045 0.9945 -4.7929 3.4893)" fill="#000075" cx="30.9" cy="47.5" rx="0.5" ry="0.5"/>
<ellipse transform="matrix(0.9945 -0.1045 0.1045 0.9945 -4.8265 3.2818)" fill="#000075" cx="28.9" cy="47.7" rx="0.5" ry="0.5"/>
<ellipse transform="matrix(0.9945 -0.1045 0.1045 0.9945 -4.6025 3.3536)" fill="#000075" cx="29.7" cy="45.6" rx="0.5" ry="0.5"/>
<ellipse transform="matrix(0.9945 -0.1045 0.1045 0.9945 -4.57 3.5602)" fill="#000075" cx="31.7" cy="45.4" rx="0.5" ry="0.5"/>
<ellipse transform="matrix(0.9945 -0.1045 0.1045 0.9945 -4.5375 3.7678)" fill="#000075" cx="33.7" cy="45.2" rx="0.5" ry="0.5"/>
<ellipse transform="matrix(0.9945 -0.1045 0.1045 0.9945 -4.5039 3.9743)" fill="#000075" cx="35.7" cy="45" rx="0.5" ry="0.5"/>
<ellipse transform="matrix(0.9945 -0.1047 0.1047 0.9945 -4.4784 4.1882)" fill="#000075" cx="37.7" cy="44.7" rx="0.5" ry="0.5"/>
<ellipse transform="matrix(0.9945 -0.1045 0.1045 0.9945 -4.2753 5.4215)" fill="#000075" cx="49.6" cy="43.5" rx="0.5" ry="0.5"/>
<ellipse transform="matrix(0.9945 -0.1045 0.1045 0.9945 -4.2428 5.6281)" fill="#000075" cx="51.6" cy="43.3" rx="0.5" ry="0.5"/>
<ellipse transform="matrix(0.9945 -0.1045 0.1045 0.9945 -4.2103 5.8346)" fill="#000075" cx="53.6" cy="43.1" rx="0.5" ry="0.5"/>
<ellipse transform="matrix(0.9945 -0.1045 0.1045 0.9945 -4.1767 6.0422)" fill="#000075" cx="55.6" cy="42.9" rx="0.5" ry="0.5"/>
<ellipse transform="matrix(0.9945 -0.1045 0.1045 0.9945 -4.6943 4.1101)" fill="#000075" cx="36.9" cy="46.8" rx="0.5" ry="0.5"/>
<ellipse transform="matrix(0.9945 -0.1045 0.1045 0.9945 -4.6618 4.3166)" fill="#000075" cx="38.9" cy="46.6" rx="0.5" ry="0.5"/>
<ellipse transform="matrix(0.9945 -0.1045 0.1045 0.9945 -4.6303 4.5234)" fill="#000075" cx="40.8" cy="46.4" rx="0.5" ry="0.5"/>
<ellipse transform="matrix(0.9945 -0.1045 0.1045 0.9945 -4.5967 4.731)" fill="#000075" cx="42.8" cy="46.2" rx="0.5" ry="0.5"/>
<ellipse transform="matrix(0.9945 -0.1047 0.1047 0.9945 -4.5712 4.9461)" fill="#000075" cx="44.8" cy="46" rx="0.5" ry="0.5"/>
<ellipse transform="matrix(0.9945 -0.1045 0.1045 0.9945 -4.5306 5.1441)" fill="#000075" cx="46.8" cy="45.8" rx="0.5" ry="0.5"/>
<ellipse transform="matrix(0.9945 -0.1045 0.1045 0.9945 -4.4982 5.3507)" fill="#000075" cx="48.8" cy="45.6" rx="0.5" ry="0.5"/>
<ellipse transform="matrix(0.9945 -0.1045 0.1045 0.9945 -4.4657 5.5572)" fill="#000075" cx="50.8" cy="45.4" rx="0.5" ry="0.5"/>
<ellipse transform="matrix(0.9945 -0.1045 0.1045 0.9945 -4.4322 5.7638)" fill="#000075" cx="52.8" cy="45.2" rx="0.5" ry="0.5"/>
<ellipse transform="matrix(0.9945 -0.1045 0.1045 0.9945 -4.3997 5.9704)" fill="#000075" cx="54.8" cy="45" rx="0.5" ry="0.5"/>
<ellipse transform="matrix(0.9945 -0.1045 0.1045 0.9945 -4.3682 6.177)" fill="#000075" cx="56.7" cy="44.8" rx="0.5" ry="0.5"/>
<ellipse transform="matrix(0.9945 -0.1045 0.1045 0.9945 -4.3346 6.3846)" fill="#000075" cx="58.7" cy="44.5" rx="0.5" ry="0.5"/>
<ellipse transform="matrix(0.9945 -0.1045 0.1045 0.9945 -4.3138 3.8364)" fill="#000075" cx="34.4" cy="43.1" rx="0.5" ry="0.5"/>
<ellipse transform="matrix(0.9945 -0.1045 0.1045 0.9945 -4.3462 3.6308)" fill="#000075" cx="32.5" cy="43.3" rx="0.5" ry="0.5"/>
<ellipse transform="matrix(0.9945 -0.1045 0.1045 0.9945 -4.1233 3.7017)" fill="#000075" cx="33.3" cy="41.2" rx="0.5" ry="0.5"/>
<ellipse transform="matrix(0.9945 -0.1045 0.1045 0.9945 -4.0191 5.6977)" fill="#000075" cx="52.3" cy="41.2" rx="0.5" ry="0.5"/>
<ellipse transform="matrix(0.9945 -0.1045 0.1045 0.9945 -1.8477 7.3688)" fill="#000075" cx="69.4" cy="21.3" rx="0.5" ry="0.5"/>
<ellipse transform="matrix(0.9945 -0.1045 0.1045 0.9945 -1.624 7.4384)" fill="#000075" cx="70.2" cy="19.2" rx="0.5" ry="0.5"/>
<ellipse transform="matrix(0.9945 -0.1045 0.1045 0.9945 -1.6576 7.2309)" fill="#000075" cx="68.2" cy="19.4" rx="0.5" ry="0.5"/>
<ellipse transform="matrix(0.9945 -0.1045 0.1045 0.9945 -1.4661 7.0961)" fill="#000075" cx="67" cy="17.5" rx="0.5" ry="0.5"/>
<ellipse transform="matrix(0.9945 -0.1045 0.1045 0.9945 -1.4336 7.3027)" fill="#000075" cx="69" cy="17.3" rx="0.5" ry="0.5"/>
<ellipse transform="matrix(0.9945 -0.1045 0.1045 0.9945 -1.4011 7.5092)" fill="#000075" cx="70.9" cy="17.1" rx="0.5" ry="0.5"/>
<ellipse transform="matrix(0.9945 -0.1045 0.1045 0.9945 -1.1783 7.579)" fill="#000075" cx="71.7" cy="15" rx="0.5" ry="0.5"/>
<ellipse transform="matrix(0.9945 -0.1045 0.1045 0.9945 -1.2097 7.3733)" fill="#000075" cx="69.7" cy="15.2" rx="0.5" ry="0.5"/>
<ellipse transform="matrix(0.9945 -0.1045 0.1045 0.9945 -1.2422 7.1668)" fill="#000075" cx="67.8" cy="15.4" rx="0.5" ry="0.5"/>
<ellipse transform="matrix(0.9945 -0.1045 0.1045 0.9945 -1.2757 6.9602)" fill="#000075" cx="65.8" cy="15.7" rx="0.5" ry="0.5"/>
<ellipse transform="matrix(0.9945 -0.1045 0.1045 0.9945 -1.0855 6.8235)" fill="#000075" cx="64.6" cy="13.8" rx="0.5" ry="0.5"/>
<ellipse transform="matrix(0.9945 -0.1045 0.1045 0.9945 -1.053 7.03)" fill="#000075" cx="66.5" cy="13.6" rx="0.5" ry="0.5"/>
<ellipse transform="matrix(0.9945 -0.1045 0.1045 0.9945 -1.0205 7.2366)" fill="#000075" cx="68.5" cy="13.4" rx="0.5" ry="0.5"/>
<ellipse transform="matrix(0.9945 -0.1045 0.1045 0.9945 -0.9869 7.4431)" fill="#000075" cx="70.5" cy="13.1" rx="0.5" ry="0.5"/>
<ellipse transform="matrix(0.9945 -0.1045 0.1045 0.9945 -0.9555 7.6498)" fill="#000075" cx="72.5" cy="12.9" rx="0.5" ry="0.5"/>
<ellipse transform="matrix(0.9945 -0.1045 0.1045 0.9945 -0.764 7.515)" fill="#000075" cx="71.3" cy="11" rx="0.5" ry="0.5"/>
<ellipse transform="matrix(0.9945 -0.1047 0.1047 0.9945 -0.7977 7.32)" fill="#000075" cx="69.3" cy="11.3" rx="0.5" ry="0.5"/>
<ellipse transform="matrix(0.9945 -0.1045 0.1045 0.9945 -0.8301 7.1009)" fill="#000075" cx="67.3" cy="11.5" rx="0.5" ry="0.5"/>
<ellipse transform="matrix(0.9945 -0.1045 0.1045 0.9945 -0.8616 6.8941)" fill="#000075" cx="65.3" cy="11.7" rx="0.5" ry="0.5"/>
<ellipse transform="matrix(0.9945 -0.1045 0.1045 0.9945 -0.8951 6.6876)" fill="#000075" cx="63.4" cy="11.9" rx="0.5" ry="0.5"/>
<ellipse transform="matrix(0.9945 -0.105 0.105 0.9945 -0.9304 6.5126)" fill="#000075" cx="61.4" cy="12.1" rx="0.5" ry="0.5"/>
<ellipse transform="matrix(0.9945 -0.1045 0.1045 0.9945 -0.7373 6.3442)" fill="#000075" cx="60.2" cy="10.2" rx="0.5" ry="0.5"/>
<ellipse transform="matrix(0.9945 -0.1045 0.1045 0.9945 -0.7709 6.1377)" fill="#000075" cx="58.2" cy="10.4" rx="0.5" ry="0.5"/>
<ellipse transform="matrix(0.9945 -0.1045 0.1045 0.9945 -0.8034 5.9311)" fill="#000075" cx="56.2" cy="10.6" rx="0.5" ry="0.5"/>
<ellipse transform="matrix(0.9945 -0.1047 0.1047 0.9945 -0.705 6.5621)" fill="#000075" cx="62.1" cy="10" rx="0.5" ry="0.5"/>
<ellipse transform="matrix(0.9945 -0.1045 0.1045 0.9945 -0.6722 6.7584)" fill="#000075" cx="64.1" cy="9.8" rx="0.5" ry="0.5"/>
<ellipse transform="matrix(0.9945 -0.1045 0.1045 0.9945 -0.6397 6.965)" fill="#000075" cx="66.1" cy="9.6" rx="0.5" ry="0.5"/>
<ellipse transform="matrix(0.9945 -0.1045 0.1045 0.9945 -0.6063 7.1715)" fill="#000075" cx="68.1" cy="9.4" rx="0.5" ry="0.5"/>
<ellipse transform="matrix(0.9945 -0.1045 0.1045 0.9945 -0.5135 6.4149)" fill="#000075" cx="60.9" cy="8.1" rx="0.5" ry="0.5"/>
<ellipse transform="matrix(0.9945 -0.1045 0.1045 0.9945 -0.5481 6.2074)" fill="#000075" cx="58.9" cy="8.3" rx="0.5" ry="0.5"/>
<ellipse transform="matrix(0.9945 -0.1045 0.1045 0.9945 -0.5794 6.0018)" fill="#000075" cx="57" cy="8.5" rx="0.5" ry="0.5"/>
<ellipse transform="matrix(0.9945 -0.1045 0.1045 0.9945 -0.612 5.7952)" fill="#000075" cx="55" cy="8.7" rx="0.5" ry="0.5"/>
<ellipse transform="matrix(0.9945 -0.1045 0.1045 0.9945 -0.6455 5.5887)" fill="#000075" cx="53" cy="9" rx="0.5" ry="0.5"/>
<ellipse transform="matrix(0.9945 -0.1045 0.1045 0.9945 -0.6781 5.381)" fill="#000075" cx="51" cy="9.2" rx="0.5" ry="0.5"/>
<ellipse transform="matrix(0.9945 -0.1045 0.1045 0.9945 -3.2435 1.2301)" fill="#000075" cx="10.1" cy="31.6" rx="0.5" ry="0.5"/>
<ellipse transform="matrix(0.9945 -0.1045 0.1045 0.9945 -3.2749 1.0245)" fill="#000075" cx="8.1" cy="31.8" rx="0.5" ry="0.5"/>
<ellipse transform="matrix(0.9945 -0.1047 0.1047 0.9945 -3.0903 0.8892)" fill="#000075" cx="6.9" cy="29.9" rx="0.5" ry="0.5"/>
<ellipse transform="matrix(0.9945 -0.1045 0.1045 0.9945 -2.8965 0.751)" fill="#000075" cx="5.7" cy="28" rx="0.5" ry="0.5"/>
<ellipse transform="matrix(0.9945 -0.1045 0.1045 0.9945 -2.8629 0.9585)" fill="#000075" cx="7.7" cy="27.8" rx="0.5" ry="0.5"/>
<ellipse transform="matrix(0.9945 -0.1045 0.1045 0.9945 -2.8304 1.1651)" fill="#000075" cx="9.7" cy="27.6" rx="0.5" ry="0.5"/>
<ellipse transform="matrix(0.9945 -0.1045 0.1045 0.9945 -2.7968 1.3727)" fill="#000075" cx="11.7" cy="27.4" rx="0.5" ry="0.5"/>
<ellipse transform="matrix(0.9945 -0.1045 0.1045 0.9945 -2.6065 1.2358)" fill="#000075" cx="10.5" cy="25.5" rx="0.5" ry="0.5"/>
<ellipse transform="matrix(0.9945 -0.1045 0.1045 0.9945 -2.6391 1.0282)" fill="#000075" cx="8.5" cy="25.7" rx="0.5" ry="0.5"/>
<ellipse transform="matrix(0.9945 -0.1045 0.1045 0.9945 -2.6716 0.8216)" fill="#000075" cx="6.5" cy="25.9" rx="0.5" ry="0.5"/>
<ellipse transform="matrix(0.9945 -0.1045 0.1045 0.9945 -2.4823 0.6859)" fill="#000075" cx="5.3" cy="24" rx="0.5" ry="0.5"/>
<ellipse transform="matrix(0.9945 -0.1045 0.1045 0.9945 -2.4487 0.8924)" fill="#000075" cx="7.3" cy="23.8" rx="0.5" ry="0.5"/>
<ellipse transform="matrix(0.9945 -0.1045 0.1045 0.9945 -2.4162 1.1001)" fill="#000075" cx="9.3" cy="23.6" rx="0.5" ry="0.5"/>
<ellipse transform="matrix(0.9945 -0.1047 0.1047 0.9945 -2.3869 1.3086)" fill="#000075" cx="11.3" cy="23.4" rx="0.5" ry="0.5"/>
<ellipse transform="matrix(0.9945 -0.1045 0.1045 0.9945 -2.1609 1.3764)" fill="#000075" cx="12.1" cy="21.3" rx="0.5" ry="0.5"/>
<ellipse transform="matrix(0.9945 -0.105 0.105 0.9945 -2.2045 1.1761)" fill="#000075" cx="10.1" cy="21.5" rx="0.5" ry="0.5"/>
<ellipse transform="matrix(0.9945 -0.1045 0.1045 0.9945 -2.2269 0.9633)" fill="#000075" cx="8.1" cy="21.7" rx="0.5" ry="0.5"/>
<ellipse transform="matrix(0.9945 -0.1045 0.1045 0.9945 -1.9695 1.2405)" fill="#000075" cx="10.9" cy="19.4" rx="0.5" ry="0.5"/>
<ellipse transform="matrix(0.9945 -0.1045 0.1045 0.9945 -1.9369 1.4481)" fill="#000075" cx="12.8" cy="19.2" rx="0.5" ry="0.5"/>
<ellipse transform="matrix(0.9945 -0.1045 0.1045 0.9945 -1.9034 1.6547)" fill="#000075" cx="14.8" cy="19" rx="0.5" ry="0.5"/>
<ellipse transform="matrix(0.9945 -0.1045 0.1045 0.9945 -1.6156 2.1387)" fill="#000075" cx="19.6" cy="16.5" rx="0.5" ry="0.5"/>
<ellipse transform="matrix(0.9945 -0.1045 0.1045 0.9945 -1.6492 1.9311)" fill="#000075" cx="17.6" cy="16.7" rx="0.5" ry="0.5"/>
<ellipse transform="matrix(0.9945 -0.1045 0.1045 0.9945 -1.6817 1.7245)" fill="#000075" cx="15.6" cy="16.9" rx="0.5" ry="0.5"/>
<ellipse transform="matrix(0.9945 -0.1045 0.1045 0.9945 -1.7142 1.5179)" fill="#000075" cx="13.6" cy="17.1" rx="0.5" ry="0.5"/>
<ellipse transform="matrix(0.9945 -0.105 0.105 0.9945 -1.4985 1.5976)" fill="#000075" cx="14.4" cy="15" rx="0.5" ry="0.5"/>
<ellipse transform="matrix(0.9945 -0.1045 0.1045 0.9945 -1.4588 1.7954)" fill="#000075" cx="16.4" cy="14.8" rx="0.5" ry="0.5"/>
<ellipse transform="matrix(0.9945 -0.1045 0.1045 0.9945 -1.4252 2.0029)" fill="#000075" cx="18.4" cy="14.6" rx="0.5" ry="0.5"/>
<ellipse transform="matrix(0.9945 -0.1045 0.1045 0.9945 -1.3927 2.2095)" fill="#000075" cx="20.4" cy="14.4" rx="0.5" ry="0.5"/>
<ellipse transform="matrix(0.9945 -0.1045 0.1045 0.9945 -1.3602 2.4161)" fill="#000075" cx="22.4" cy="14.2" rx="0.5" ry="0.5"/>
<ellipse transform="matrix(0.9945 -0.1045 0.1045 0.9945 -1.3266 2.6237)" fill="#000075" cx="24.4" cy="14" rx="0.5" ry="0.5"/>
<ellipse transform="matrix(0.9945 -0.1045 0.1045 0.9945 -1.2942 2.8292)" fill="#000075" cx="26.3" cy="13.8" rx="0.5" ry="0.5"/>
<ellipse transform="matrix(0.9945 -0.1045 0.1045 0.9945 -1.1699 2.2793)" fill="#000075" cx="21.2" cy="12.3" rx="0.5" ry="0.5"/>
<ellipse transform="matrix(0.9945 -0.105 0.105 0.9945 -1.2068 2.0835)" fill="#000075" cx="19.2" cy="12.5" rx="0.5" ry="0.5"/>
<ellipse transform="matrix(0.9945 -0.1045 0.1045 0.9945 -1.235 1.866)" fill="#000075" cx="17.2" cy="12.7" rx="0.5" ry="0.5"/>
<ellipse transform="matrix(0.9945 -0.1045 0.1045 0.9945 -3.0533 1.0943)" fill="#000075" cx="8.9" cy="29.7" rx="0.5" ry="0.5"/>
<ellipse transform="matrix(0.9945 -0.1045 0.1045 0.9945 -3.0197 1.3008)" fill="#000075" cx="10.9" cy="29.5" rx="0.5" ry="0.5"/>
<ellipse transform="matrix(0.9945 -0.1045 0.1045 0.9945 -0.4228 5.6585)" fill="#000075" cx="53.8" cy="6.9" rx="0.5" ry="0.5"/>
<ellipse transform="matrix(0.9945 -0.1045 0.1045 0.9945 -0.3903 5.865)" fill="#000075" cx="55.8" cy="6.7" rx="0.5" ry="0.5"/>
<ellipse transform="matrix(0.9945 -0.1045 0.1045 0.9945 -0.3567 6.0716)" fill="#000075" cx="57.7" cy="6.4" rx="0.5" ry="0.5"/>
<ellipse transform="matrix(0.9945 -0.1045 0.1045 0.9945 -3.9866 5.9043)" fill="#000075" cx="54.3" cy="41" rx="0.5" ry="0.5"/>
<ellipse transform="matrix(0.9945 -0.1045 0.1045 0.9945 -5.8305 6.3033)" fill="#000075" cx="57.2" cy="58.8" rx="0.5" ry="0.5"/>
<ellipse transform="matrix(0.9945 -0.1045 0.1045 0.9945 -5.798 6.5099)" fill="#000075" cx="59.2" cy="58.6" rx="0.5" ry="0.5"/>
<ellipse transform="matrix(0.9945 -0.1045 0.1045 0.9945 -5.7644 6.7175)" fill="#000075" cx="61.2" cy="58.4" rx="0.5" ry="0.5"/>
<ellipse transform="matrix(0.9945 -0.1045 0.1045 0.9945 -6.0219 6.4392)" fill="#000075" cx="58.4" cy="60.7" rx="0.5" ry="0.5"/>
<ellipse transform="matrix(0.9945 -0.1045 0.1045 0.9945 -5.9883 6.6468)" fill="#000075" cx="60.4" cy="60.5" rx="0.5" ry="0.5"/>
<ellipse transform="matrix(0.9945 -0.1045 0.1045 0.9945 -5.9558 6.8534)" fill="#000075" cx="62.4" cy="60.2" rx="0.5" ry="0.5"/>
<ellipse transform="matrix(0.9945 -0.1045 0.1045 0.9945 -4.9056 6.7931)" fill="#000075" cx="62.4" cy="50.2" rx="0.5" ry="0.5"/>
<ellipse transform="matrix(0.9945 -0.1045 0.1045 0.9945 -5.096 6.9278)" fill="#000075" cx="63.5" cy="52.1" rx="0.5" ry="0.5"/>
<ellipse transform="matrix(0.9945 -0.1045 0.1045 0.9945 -5.3198 6.8581)" fill="#000075" cx="62.8" cy="54.2" rx="0.5" ry="0.5"/>
<ellipse transform="matrix(0.9945 -0.1045 0.1045 0.9945 -5.2862 7.0657)" fill="#000075" cx="64.8" cy="54" rx="0.5" ry="0.5"/>
<ellipse transform="matrix(0.9945 -0.1045 0.1045 0.9945 -5.5102 6.9939)" fill="#000075" cx="64" cy="56.1" rx="0.5" ry="0.5"/>
<ellipse transform="matrix(0.9945 -0.1045 0.1045 0.9945 -5.7319 6.924)" fill="#000075" cx="63.2" cy="58.1" rx="0.5" ry="0.5"/>
<ellipse transform="matrix(0.9945 -0.1045 0.1045 0.9945 -5.7004 7.1307)" fill="#000075" cx="65.2" cy="58" rx="0.5" ry="0.5"/>
<ellipse transform="matrix(0.9945 -0.1045 0.1045 0.9945 -6.0984 3.2733)" fill="#000075" cx="28.2" cy="59.8" rx="0.5" ry="0.5"/>
<ellipse transform="matrix(0.9945 -0.1045 0.1045 0.9945 -6.067 3.4789)" fill="#000075" cx="30.2" cy="59.6" rx="0.5" ry="0.5"/>
<ellipse transform="matrix(0.9945 -0.1045 0.1045 0.9945 -6.0344 3.6866)" fill="#000075" cx="32.2" cy="59.4" rx="0.5" ry="0.5"/>
<ellipse transform="matrix(0.9945 -0.1045 0.1045 0.9945 -6.0019 3.8932)" fill="#000075" cx="34.1" cy="59.2" rx="0.5" ry="0.5"/>
<ellipse transform="matrix(0.9945 -0.1047 0.1047 0.9945 -6.2337 3.8295)" fill="#000075" cx="33.4" cy="61.3" rx="0.5" ry="0.5"/>
<ellipse transform="matrix(0.9945 -0.1045 0.1045 0.9945 -6.5451 3.1318)" fill="#000075" cx="26.6" cy="64" rx="0.5" ry="0.5"/>
<ellipse transform="matrix(0.9945 -0.1045 0.1045 0.9945 -6.5126 3.3383)" fill="#000075" cx="28.6" cy="63.8" rx="0.5" ry="0.5"/>
<ellipse transform="matrix(0.9945 -0.1045 0.1045 0.9945 -6.3224 3.2016)" fill="#000075" cx="27.4" cy="61.9" rx="0.5" ry="0.5"/>
<ellipse transform="matrix(0.9945 -0.1045 0.1045 0.9945 -6.2898 3.4092)" fill="#000075" cx="29.4" cy="61.7" rx="0.5" ry="0.5"/>
<ellipse transform="matrix(0.9945 -0.1045 0.1045 0.9945 -6.479 3.5449)" fill="#000075" cx="30.6" cy="63.6" rx="0.5" ry="0.5"/>
<ellipse transform="matrix(0.9945 -0.1045 0.1045 0.9945 -6.4465 3.7525)" fill="#000075" cx="32.6" cy="63.4" rx="0.5" ry="0.5"/>
<ellipse transform="matrix(0.9945 -0.1045 0.1045 0.9945 -6.2573 3.6147)" fill="#000075" cx="31.4" cy="61.5" rx="0.5" ry="0.5"/>
<path fill="#000075" d="M118.7,34.3c2.7,0,5.7-0.8,7.3-3.2l-3.4-2.3c-0.9,1-2.2,1.5-3.5,1.5c-1.7,0-3.7-0.9-3.9-2.8h11.7
	c0-0.4,0.1-1,0.1-1.4c0-4.6-3.6-8.3-8.2-8.3s-8.3,3.6-8.3,8.2c-0.1,4.5,3.4,8.2,7.9,8.3C118.4,34.3,118.6,34.3,118.7,34.3
	L118.7,34.3z M118.7,21.8c1.7,0,3.1,1.2,3.3,2.8h-6.9C115.5,23,117,21.8,118.7,21.8L118.7,21.8z M145.1,30.9l-3.9-2.7
	c-0.7,1-1.8,1.6-3.1,1.6c-2.1,0.1-3.9-1.6-4-3.8c0,0,0,0,0,0c0-2.1,1.8-3.8,3.9-3.7c0,0,0.1,0,0.1,0c1.2,0,2.4,0.6,3.1,1.6l3.9-2.8
	c-1.6-2.2-4.2-3.4-6.9-3.4c-4.6,0-8.7,3.2-8.7,8.3c0.2,4.8,4.2,8.5,9,8.4C141.1,34.2,143.6,32.9,145.1,30.9L145.1,30.9z M155.5,34.2
	c4.5,0.1,8.2-3.4,8.3-7.8c0-0.1,0-0.3,0-0.4c0-4.6-3.7-8.3-8.3-8.3c-4.6,0-8.3,3.7-8.3,8.3c-0.2,4.4,3.3,8.1,7.7,8.3
	C155.1,34.2,155.3,34.2,155.5,34.2L155.5,34.2z M155.5,22.3c2,0,3.7,1.6,3.7,3.6s-1.6,3.7-3.6,3.7c-2,0-3.7-1.6-3.7-3.6
	c0,0,0,0,0-0.1c0-1.9,1.5-3.6,3.4-3.6C155.4,22.3,155.5,22.3,155.5,22.3z M191.6,9.3v10.6c-1-1.5-2.8-2.4-4.7-2.3
	c-4.1,0-7.7,3.2-7.7,8.4s3.6,8.3,7.7,8.3c1.9,0.1,3.6-0.8,4.7-2.3v2h4.7V9.3H191.6z M187.8,29.7c-2.1,0-3.8-1.7-3.8-3.8
	c0-2.1,1.7-3.8,3.8-3.8c2,0,3.6,1.6,3.7,3.6c0,0.1,0,0.2,0,0.3C191.5,28,189.9,29.7,187.8,29.7C187.8,29.7,187.8,29.7,187.8,29.7z
	 M103.6,53.7c0,2.2-1.8,4.1-4.1,4.1s-4.1-1.8-4.1-4.1V38.6h-5.1v15.1c0,5.3,4.3,8.7,9.1,8.7s9.1-3.4,9.1-8.7V38.6h-5L103.6,53.7
	L103.6,53.7z M122.1,45.9c-1.9,0-3.7,1-4.6,2.7v-2.3h-4.7v15.9h4.7v-8.4c0-2.4,1.3-3.2,2.9-3.2s2.8,1.1,2.8,3.2v8.5h4.7v-9.5
	C128,48.1,125.7,45.9,122.1,45.9L122.1,45.9z"/>
<path fill="#000075" d="M132.2,46.2h4.7v15.9h-4.7V46.2z"/>
<path fill="#000075" d="M148.3,45.9c-4.6,0-8.3,3.7-8.2,8.3c0,4.6,3.7,8.3,8.3,8.2c4.6,0,8.3-3.7,8.2-8.3c0.1-4.4-3.3-8.1-7.7-8.3
	C148.7,45.9,148.5,45.9,148.3,45.9z M148.3,57.8c-2,0-3.6-1.6-3.6-3.6c0-2,1.6-3.6,3.6-3.6c2,0,3.6,1.6,3.6,3.6
	c0.1,1.9-1.5,3.6-3.4,3.6C148.5,57.8,148.4,57.8,148.3,57.8L148.3,57.8z M169.4,45.9c-1.9,0-3.7,1-4.6,2.7v-2.3H160v15.9h4.7v-8.4
	c0-2.4,1.3-3.2,2.9-3.2s2.8,1.1,2.8,3.2v8.5h4.7v-9.5C175.2,48.1,173,45.9,169.4,45.9z"/>
<circle fill="#000075" cx="134.5" cy="40.3" r="3.3"/>
<path fill="#000075" d="M174.2,18.4c-0.9,0.4-1.6,1-2.3,1.8v-2.2h-4.8v16h4.8v-6.4c-0.1-1.4,0.3-2.8,1-4c0.7-1,1.9-1.6,3.2-1.5h0.9
	v-4.5C176.1,17.7,175.1,17.9,174.2,18.4L174.2,18.4z M95.4,27.4h3.3l4.1,6.5h5.5l-4.7-7.4c2.9-1.4,4.7-4.4,4.7-7.6
	c0.1-4.6-3.5-8.4-8.1-8.5c-0.1,0-0.3,0-0.4,0h-9.4v23.4h5L95.4,27.4L95.4,27.4z M95.4,14.9h4c2.1,0,3.8,1.8,3.8,3.9
	c0,0.1,0,0.1,0,0.2c0.1,2.1-1.5,3.9-3.6,4.1c0,0-0.1,0-0.1,0h-4L95.4,14.9L95.4,14.9z"/>
</svg>
